<?xml version="1.0" encoding="utf-8"?>
<!-- Generator: Adobe Illustrator 21.0.0, SVG Export Plug-In . SVG Version: 6.00 Build 0)  -->
<svg version="1.1" id="Layer_1" xmlns="http://www.w3.org/2000/svg" xmlns:xlink="http://www.w3.org/1999/xlink" x="0px" y="0px"
	 viewBox="0 0 375 139.1" style="enable-background:new 0 0 375 139.1;" xml:space="preserve">
<style type="text/css">
	.st0{fill:#FFFFFF;}
</style>
<g>
	<g>
		<path class="st0" d="M160,47.2l4-14l-2.9-9.3l-2.8,0V23l15.1,0v0.9h-2.9l7.2,23l5.8-23l-4.9,0V23l9.7,0v0.9h-3.2l-8.9,33.6h-4.3
			l-7.2-21.9l-6.3,21.9h-4.2L142,23.9l-2.3,0V23l15.8,0v0.9h-3.4L160,47.2z"/>
		<path class="st0" d="M188.8,54.4c-2.1-2.1-3.1-5-3.1-8.9c0-3.9,1.1-6.8,3.3-8.9c2.2-2.1,5.3-3.1,9.3-3.1c4,0,7,1,9,2.9
			c2,1.9,3,4.9,3,8.8c0,8.3-4.1,12.4-12.3,12.4C193.9,57.5,190.8,56.4,188.8,54.4z M201,47.4v-4.1c0-3.1-0.2-5.4-0.5-6.9
			c-0.3-1.4-1.1-2.2-2.4-2.2c-0.7,0-1.3,0.2-1.7,0.6c-0.4,0.4-0.8,1.1-0.9,2c-0.3,1.5-0.4,3.7-0.4,6.7v3.8c0,3.5,0.1,5.6,0.3,6.4
			c0.2,0.7,0.4,1.3,0.7,1.7c0.4,0.8,1.1,1.2,2.1,1.2c1.3,0,2.1-0.7,2.5-2.2C200.8,53.4,201,51,201,47.4z"/>
		<path class="st0" d="M211.6,33.9h11.7v4.5c1.1-3.3,3.4-5,7.1-5c3.6,0,5.9,1.7,6.6,5.2c1.1-3.5,3.5-5.2,7.1-5.2
			c4.8,0,7.1,2.7,7.1,8.1v14.6h2.7V57h-13.4v-0.9h1.7l0-15.8c0-2.5-0.2-3.9-0.6-4.3c-0.2-0.2-0.5-0.3-0.8-0.3
			c-0.9,0-1.8,0.6-2.5,1.9c-0.7,1.3-1.1,2.9-1.1,4.8v13.7h1.7V57l-12.5,0v-0.9h1.7V40.3c0-2.5-0.2-3.9-0.6-4.3
			c-0.2-0.2-0.5-0.3-0.8-0.3c-0.9,0-1.7,0.7-2.5,2.1c-0.7,1.4-1.1,3-1.1,4.9v13.4l1.7,0V57h-13.4v-0.9h2.7l0-21.4h-2.7V33.9z"/>
		<path class="st0" d="M258.1,54.2c-2.1-2.2-3.1-5.1-3.1-9c0-3.8,1.2-6.8,3.5-8.8c2.3-2,5.3-3.1,9-3.1c7.3,0,10.9,3.7,10.6,11.1
			h-13.7v1.9c0,3.2,0.4,5.6,1.2,7.2c0.8,1.6,2.2,2.4,4.2,2.4c3.8,0,6.2-2,7.4-6l0.9,0.1c-0.6,2.3-1.7,4.1-3.3,5.4
			c-1.6,1.3-4,1.9-7.2,1.9C263.3,57.5,260.2,56.4,258.1,54.2z M264.4,43.5l5,0v-2.4c0-2.6-0.2-4.4-0.5-5.4c-0.3-1-0.9-1.4-1.8-1.4
			c-0.9,0-1.6,0.5-2,1.5c-0.4,1-0.7,2.8-0.7,5.3V43.5z"/>
		<path class="st0" d="M279.9,33.9h11.7v4.5c0.5-1.5,1.3-2.7,2.4-3.6c1.1-0.9,2.7-1.4,4.9-1.4c5,0,7.5,2.7,7.5,8.1v14.6h2.7V57
			h-13.7v-0.9h2V40.3c0-1.9-0.1-3.2-0.4-3.8c-0.3-0.6-0.7-0.8-1.4-0.8c-1,0-1.9,0.7-2.7,2c-0.8,1.4-1.2,3-1.2,5v13.4h2.1V57h-13.8
			v-0.9h2.7V34.8h-2.7V33.9z"/>
		<path class="st0" d="M140.6,74.3h14.8v0.9h-2.7l0,32.1h2.7v0.9h-14.8v-0.9h2.7l0-32.1h-2.7V74.3z"/>
		<path class="st0" d="M157.2,85.2h11.7v4.5c0.5-1.5,1.3-2.7,2.4-3.6c1.1-0.9,2.7-1.4,4.9-1.4c5,0,7.5,2.7,7.5,8.1v14.6h2.7v0.9
			h-13.7v-0.9h2V91.6c0-1.9-0.1-3.2-0.4-3.8c-0.3-0.6-0.7-0.8-1.4-0.8c-1,0-2,0.7-2.7,2c-0.8,1.4-1.2,3-1.2,5v13.4h2.1v0.9h-13.8
			v-0.9h2.7V86l-2.7,0V85.2z"/>
		<path class="st0" d="M229.9,90.7c0,6.7-1.9,11.3-5.6,13.9c-3.5,2.4-8.2,3.6-14.3,3.6h-13.7v-0.9h3.2l0-32.1h-3.2v-0.9h15
			c6.2,0,10.9,1.3,14,3.8C228.4,80.7,229.9,84.9,229.9,90.7z M209,107.4h1.8c3.3,0,5.6-1.2,7-3.5c1.4-2.3,2.1-6.2,2.1-11.6v-2.8
			c0-7.3-1.4-11.7-4.2-13.2c-1.3-0.7-3.2-1.1-5.6-1.1H209V107.4z"/>
		<path class="st0" d="M232.2,85.2h11.9v22.2h2.7v0.9l-14.4,0v-0.9h2.7V86h-2.9V85.2z M239.6,81.8c-1.7,0-2.9-0.4-3.7-1.3
			c-0.7-0.9-1.1-2-1.1-3.3c0-1.3,0.4-2.4,1.2-3.2c0.8-0.8,2-1.3,3.6-1.3c1.6,0,2.8,0.4,3.7,1.1c0.8,0.8,1.3,1.8,1.3,3.3
			c0,1.4-0.4,2.5-1.2,3.4C242.5,81.4,241.3,81.8,239.6,81.8z"/>
		<path class="st0" d="M267.3,82.6l1.4-0.8c0.2-1-0.2-1.5-1.2-1.5c-1.4,0-2.1,1.1-2.1,3.2c0,0.8,0.1,1.8,0.3,2.9
			c2.5,1.7,3.7,3.8,3.7,6.3c0,2.6-0.9,4.6-2.7,6c-1.8,1.4-4.2,2.1-7.2,2.1c-1.3,0-2.6-0.1-3.9-0.4c-1.4,0.9-2.1,1.6-2.1,2
			c0,0.5,1,0.7,3.1,0.7h5c7.3,0,11,2.6,11,7.9c0,2.8-1.1,5.1-3.3,6.8c-2.2,1.7-5.7,2.5-10.4,2.5c-8,0-12-1.7-12-5.2
			c0-1.9,1.2-3.2,3.7-3.9l2.9,1.3c-0.3,0.9-0.4,1.8-0.4,2.7c0,2.8,2.1,4.2,6.2,4.2c2.5,0,4.5-0.5,5.8-1.4c1.4-0.9,2-2.1,2-3.5
			c0-1.4-0.4-2.3-1.2-2.8c-0.8-0.5-2.5-0.7-4.9-0.7h-4.7c-2.6,0-4.5-0.4-5.6-1.3c-1.1-0.9-1.7-1.9-1.7-3.2c0-1.3,0.4-2.3,1.2-3.2
			c0.8-0.9,2.2-1.9,4.3-3.2c-3.8-1.1-5.6-3.5-5.6-7.4c0-2.4,0.9-4.4,2.6-5.9c1.7-1.5,4.4-2.2,7.9-2.2c2.1,0,3.9,0.4,5.4,1.2
			c-0.2-0.9-0.3-1.7-0.3-2.4c0-1.8,0.5-3.1,1.5-3.9c1-0.8,2.1-1.2,3.3-1.2c1.2,0,2.2,0.3,2.9,0.9c0.7,0.6,1.1,1.5,1.1,2.6
			c0,1.1-0.3,1.9-0.9,2.5c-0.6,0.5-1.3,0.8-2.1,0.8c-0.8,0-1.5-0.2-2-0.7C267.6,84.1,267.3,83.5,267.3,82.6z M257,91.7v2.6
			c0,2.2,0.2,3.6,0.6,4.4c0.4,0.8,0.9,1.2,1.7,1.2s1.3-0.4,1.7-1.1c0.3-0.8,0.5-2.3,0.5-4.7v-2.4c0-2.5-0.2-4.2-0.5-5
			c-0.3-0.8-0.9-1.2-1.6-1.2c-0.8,0-1.3,0.4-1.7,1.2C257.2,87.6,257,89.3,257,91.7z"/>
		<path class="st0" d="M273,85.2h11.9v22.2h2.7v0.9h-14.4v-0.9h2.7V86H273V85.2z M280.3,81.8c-1.7,0-2.9-0.4-3.7-1.3
			c-0.7-0.9-1.1-2-1.1-3.3c0-1.3,0.4-2.4,1.2-3.2c0.8-0.8,2-1.3,3.6-1.3c1.6,0,2.8,0.4,3.7,1.1c0.8,0.8,1.3,1.8,1.3,3.3
			s-0.4,2.5-1.2,3.4C283.3,81.4,282,81.8,280.3,81.8z"/>
		<path class="st0" d="M291,101.3V86h-2.7v-0.9h2.7v-6.3l9-2.2v8.5l6.3,0V86H300v16.4c0,1.5,0.2,2.6,0.5,3.4
			c0.3,0.7,0.9,1.1,1.9,1.1c1,0,1.8-0.5,2.5-1.5c0.7-1,1.2-2.3,1.4-4l0.8,0.1c-0.3,2.2-1,4-2.1,5.3c-1.2,1.3-3.1,2-5.8,2
			c-2.7,0-4.7-0.5-6.2-1.6C291.7,106.1,291,104.2,291,101.3z"/>
		<path class="st0" d="M319.3,96.9h1.4v-3.7c0-3.1-0.2-5.1-0.5-6.2c-0.3-1.1-1-1.6-2-1.6c-0.6,0-1.1,0.2-1.6,0.5
			c-0.5,0.3-0.7,0.7-0.7,1.3c0,0.5,0.1,1.1,0.3,1.6h1.2c0.3,0.7,0.4,1.5,0.4,2.5c0,1-0.4,1.8-1.2,2.5c-0.8,0.7-1.8,1-3.1,1
			c-2.8,0-4.2-1.3-4.2-4c0-4,3.4-6,10.1-6c3.9,0,6.5,0.7,8,2c1.5,1.3,2.2,3.7,2.2,7.2v9.9c0,1.7,0.5,2.5,1.4,2.5
			c1.1,0,1.7-1.7,1.9-5l0.7,0c-0.1,2.8-0.7,4.8-1.6,5.9c-0.9,1.1-2.5,1.6-4.6,1.6c-3.9,0-6.1-1.2-6.7-3.6c-0.4,1.2-1.1,2.1-1.9,2.7
			c-0.8,0.6-2.1,0.9-3.7,0.9c-4.8,0-7.2-2-7.2-5.9c0-2.3,0.9-3.9,2.7-4.7C312.7,97.3,315.5,96.9,319.3,96.9z M317.7,106.1
			c0.2,0.5,0.5,0.7,1,0.7c0.5,0,1-0.4,1.4-1.2c0.4-0.8,0.7-2,0.7-3.4v-4.5h-0.3c-2,0-3,1.5-3,4.4v0.8
			C317.4,104.5,317.5,105.6,317.7,106.1z"/>
		<path class="st0" d="M334.1,71.9H346v35.5h2.7v0.9h-14.4v-0.9h2.7V72.7h-2.9V71.9z"/>
	</g>
	<g>
		<path class="st0" d="M70.2,21.8c-24.8,0-44.9,20.1-44.9,44.9c0,24.8,20.1,44.9,44.9,44.9c1.9,0,3.8-0.1,5.7-0.4
			c-4.2-7.1-4-15.9-5.5-18.4c-2-3.3-4.9-2.6-9.2-1.5c-4.3,1-9.8,0.3-10.5-2.4c-0.7-2.6,1.1-3.8,0.9-5c-0.2-1.2-3.1-1.2-3.4-3.5
			c-0.3-2.3,2.4-2.2,2.4-2.2s-3.8-1.1-3.6-3c0.2-1.9,2.6-3,2.3-3.8c0,0-4.1-0.6-3.4-3.2c0.4-1.2,1.5-3,2.8-4.9c0,0,1.4-1.9,2.5-4
			c0,0,0,0,0,0c0.4-0.7,0.7-1.4,1-2c0,0,0,0,0,0l0,0c0.3-0.8,0.5-1.5,0.5-2.2c-0.1-3.5-4.2-6.9-2.4-13.7c1.2-5,6.7-8.8,6.7-8.8
			s0,0.2,0.1,0.4c-2,18.1,5.5,21.3,15.5,28.2C82.3,68,93.2,81.5,80,92.4c-0.1,0-0.1,0.1-0.2,0.1c-0.2,0.1-0.4,0.1-0.6,0.2
			c0,0,0.1,0,0.2,0.1c0,0-0.1,0-0.1,0l0.2,0c0,0,0,0,0,0c0,0-0.1,0.1-0.1,0.1l0.2-0.1c1.2,0.4,5.7,1.4,8.9-3.2c-0.6,7-9.5,10-8.3,21
			c20-4.5,35-22.4,35-43.8C115.1,41.9,95,21.8,70.2,21.8z"/>
	</g>
</g>
</svg>
